<?xml version="1.0" encoding="UTF-8"?>
<svg width="24px" height="24px" viewBox="0 0 24 24" version="1.1" xmlns="http://www.w3.org/2000/svg" xmlns:xlink="http://www.w3.org/1999/xlink">
    <title>coin</title>
    <g id="Page-1" stroke="none" stroke-width="1" fill="none" fill-rule="evenodd">
        <g id="coin">
            <polygon id="Path" points="0 0 24 0 24 24 0 24"></polygon>
            <path d="M12,24 C5.3724,24 0,18.6276 0,12 C0,5.3724 5.3724,0 12,0 C18.6276,0 24,5.3724 24,12 C24,18.6276 18.6276,24 12,24 Z M12,21.6 C17.3019336,21.6 21.6,17.3019336 21.6,12 C21.6,6.6980664 17.3019336,2.4 12,2.4 C6.6980664,2.4 2.4,6.6980664 2.4,12 C2.4,17.3019336 6.6980664,21.6 12,21.6 Z M12,6.06 L17.94,12 L12,17.94 L6.06,12 L12,6.06 Z M12,9.4548 L9.4548,12 L12,14.5452 L14.5452,12 L12,9.4548 L12,9.4548 Z" id="Shape" fill="#B0B0B0" fill-rule="nonzero"></path>
        </g>
    </g>
</svg>