<?xml version="1.0" encoding="UTF-8"?>
<svg width="24px" height="24px" viewBox="0 0 24 24" version="1.1" xmlns="http://www.w3.org/2000/svg" xmlns:xlink="http://www.w3.org/1999/xlink">
    <title>copper-coin-line</title>
    <g id="Page-1" stroke="none" stroke-width="1" fill="none" fill-rule="evenodd">
        <g id="copper-coin-line">
            <polygon id="Path" points="0 0 24 0 24 24 0 24"></polygon>
            <path d="M12,22 C6.477,22 2,17.523 2,12 C2,6.477 6.477,2 12,2 C17.523,2 22,6.477 22,12 C22,17.523 17.523,22 12,22 Z M12,20 C16.418278,20 20,16.418278 20,12 C20,7.581722 16.418278,4 12,4 C7.581722,4 4,7.581722 4,12 C4,16.418278 7.581722,20 12,20 Z M12,7.05 L16.95,12 L12,16.95 L7.05,12 L12,7.05 Z M12,9.879 L9.879,12 L12,14.121 L14.121,12 L12,9.879 L12,9.879 Z" id="Shape" fill="#B0B0B0" fill-rule="nonzero"></path>
        </g>
    </g>
</svg>