<svg width="86" height="37" viewBox="0 0 86 37" fill="none" xmlns="http://www.w3.org/2000/svg">
<path opacity="0.3" d="M23.4789 9.187C18.0627 9.26481 18.8007 16.4658 14.5 19.7591C9.90454 23.2781 1 25.8762 1 25.8762V37H85V1.25908C85 1.25908 77.4955 0.421178 73 1.75908C66.5 3.69355 67 7.75903 61.5 9.25903C55.5368 10.8854 52.9573 0.728397 47 2.37615C43.2644 3.40939 39.5 8.8762 39.5 8.8762C39.5 8.8762 35.8642 14.6359 32.1549 14.9528C28.1015 15.2991 27.5466 9.12857 23.4789 9.187Z" fill="url(#paint0_linear_62_1023)"/>
<path d="M1 25.8761C1 25.8761 9.53769 23.5262 14 20.2591C18.5927 16.8966 17.7871 9.14067 23.4789 9.187C27.5469 9.22012 28.0946 15.2052 32.1549 14.9528C36.145 14.7048 40 8.37615 40 8.37615C40 8.37615 43.5681 3.46488 47 2.37615C52.9633 0.484365 55.3482 10.3247 61.5 9.187C65.9888 8.35685 66.7544 4.05347 71 2.37615C76.101 0.360856 85 1.25908 85 1.25908" stroke="#0FAE96" stroke-linecap="round"/>
<defs>
<linearGradient id="paint0_linear_62_1023" x1="37" y1="-19.741" x2="46.5" y2="22.759" gradientUnits="userSpaceOnUse">
<stop stop-color="#00A58C"/>
<stop offset="1" stop-color="#00A58C" stop-opacity="0"/>
</linearGradient>
</defs>
</svg>
