<?xml version="1.0" encoding="UTF-8"?>
<svg width="450px" height="450px" viewBox="0 0 450 450" version="1.1" xmlns="http://www.w3.org/2000/svg" xmlns:xlink="http://www.w3.org/1999/xlink">
    <title>user-circle</title>
    <g id="Page-1" stroke="none" stroke-width="1" fill="none" fill-rule="evenodd">
        <g id="user-circle" fill="#8FA0B9" fill-rule="nonzero">
            <path d="M225,0 C100.7,0 0,100.7 0,225 C0,349.3 100.7,450 225,450 C349.3,450 450,349.3 450,225 C450,100.7 349.3,0 225,0 Z M225,87.1 C269.1,87.1 304.8,122.8 304.8,166.9 C304.8,211 269.1,246.7 225,246.7 C180.9,246.7 145.2,211 145.2,166.9 C145.2,122.8 180.9,87.1 225,87.1 Z M225,399.2 C171.7,399.2 124,375.1 92.1,337.3 C109.2,305.2 142.5,283 181.5,283 C183.7,283 185.9,283.4 187.9,284 C199.7,287.8 212,290.3 225,290.3 C238,290.3 250.4,287.9 262.1,284 C264.2,283.4 266.4,283 268.5,283 C307.4,283 340.8,305.1 357.9,337.3 C326,375.1 278.3,399.2 225,399.2 Z" id="Shape"></path>
        </g>
    </g>
</svg>